<?xml version="1.0" encoding="UTF-8"?>
<svg id="Layer_1" data-name="Layer 1" xmlns="http://www.w3.org/2000/svg" xmlns:xlink="http://www.w3.org/1999/xlink" viewBox="0 0 227.8 260.79">
  <defs>
    <style>
      .cls-1 {
        fill: none;
      }

      .cls-2 {
        font-size: 10.8px;
      }

      .cls-2, .cls-3, .cls-4, .cls-5, .cls-6, .cls-7 {
        font-family: PoynterAgateOne-BoldCondensed, 'Poynter Agate One';
        font-weight: 700;
      }

      .cls-2, .cls-3, .cls-8, .cls-9, .cls-10, .cls-7 {
        fill: #231f20;
      }

      .cls-3, .cls-4, .cls-11, .cls-8 {
        font-size: 7.2px;
      }

      .cls-4, .cls-11 {
        fill: #ed1c24;
      }

      .cls-12 {
        clip-path: url(#clippath-1);
      }

      .cls-13 {
        clip-path: url(#clippath-3);
      }

      .cls-14 {
        clip-path: url(#clippath-4);
      }

      .cls-15 {
        clip-path: url(#clippath-2);
      }

      .cls-16 {
        letter-spacing: 0em;
      }

      .cls-17 {
        letter-spacing: 0em;
      }

      .cls-18 {
        letter-spacing: 0em;
      }

      .cls-11, .cls-8, .cls-9, .cls-10 {
        font-family: PoynterAgateOne-Condensed, 'Poynter Agate One';
      }

      .cls-19, .cls-5, .cls-6 {
        fill: #fff;
      }

      .cls-9 {
        font-size: 5.48px;
      }

      .cls-10, .cls-6, .cls-7 {
        font-size: 5.4px;
      }

      .cls-5 {
        font-size: 11.51px;
      }

      .cls-20 {
        letter-spacing: 0em;
      }

      .cls-21 {
        letter-spacing: 0em;
      }

      .cls-22 {
        letter-spacing: 0em;
      }

      .cls-23 {
        letter-spacing: -.1em;
      }

      .cls-24 {
        letter-spacing: -.08em;
      }

      .cls-25 {
        letter-spacing: -.06em;
      }

      .cls-26 {
        letter-spacing: -.06em;
      }

      .cls-27 {
        letter-spacing: -.02em;
      }

      .cls-28 {
        letter-spacing: -.02em;
      }

      .cls-29 {
        letter-spacing: -.02em;
      }

      .cls-30 {
        letter-spacing: -.02em;
      }

      .cls-31 {
        letter-spacing: -.02em;
      }

      .cls-32 {
        letter-spacing: -.02em;
      }

      .cls-33 {
        letter-spacing: -.02em;
      }

      .cls-34 {
        letter-spacing: -.05em;
      }

      .cls-35 {
        letter-spacing: -.03em;
      }

      .cls-36 {
        letter-spacing: -.03em;
      }

      .cls-37 {
        letter-spacing: -.03em;
      }

      .cls-38 {
        letter-spacing: -.03em;
      }

      .cls-39 {
        letter-spacing: -.03em;
      }

      .cls-40 {
        letter-spacing: -.03em;
      }

      .cls-41 {
        letter-spacing: -.03em;
      }

      .cls-42 {
        letter-spacing: -.03em;
      }

      .cls-43 {
        letter-spacing: 0em;
      }

      .cls-44 {
        letter-spacing: 0em;
      }

      .cls-45 {
        letter-spacing: 0em;
      }

      .cls-46 {
        fill: #e5342f;
      }

      .cls-47 {
        letter-spacing: 0em;
      }

      .cls-48 {
        letter-spacing: 0em;
      }

      .cls-49 {
        clip-path: url(#clippath);
      }

      .cls-50 {
        fill: #d3dcf0;
      }
    </style>
    <clipPath id="clippath">
      <rect class="cls-1" y="0" width="226.77" height="260.79"/>
    </clipPath>
    <clipPath id="clippath-1">
      <rect class="cls-1" y="80.65" width="226.77" height="174.95"/>
    </clipPath>
    <clipPath id="clippath-2">
      <rect class="cls-1" x="0" y="79.61" width="227.8" height="175.98"/>
    </clipPath>
    <clipPath id="clippath-3">
      <rect class="cls-1" y="0" width="226.77" height="77.67"/>
    </clipPath>
    <clipPath id="clippath-4">
      <rect class="cls-1" x="0" width="227.8" height="78.79"/>
    </clipPath>
  </defs>
  <g class="cls-49">
    <rect class="cls-50" y="229.61" width="226.77" height="31.18"/>
    <g class="cls-12">
      <g class="cls-15">
      </g>
    </g>
    <g class="cls-13">
      <g class="cls-14">
      </g>
    </g>
    <rect class="cls-50" x="48.19" y=".35" width="178.58" height="72.28"/>
    <rect class="cls-50" y="28.35" width="226.77" height="53.4"/>
    <rect class="cls-50" x="2.48" y="188.15" width="223.23" height="27.28"/>
    <rect class="cls-19" x="17.01" y="86.1" width="202.1" height="14.53"/>
    <rect class="cls-19" x="17.01" y="108.78" width="202.1" height="14.53"/>
    <rect class="cls-19" x="17.01" y="129.33" width="202.1" height="14.53"/>
    <rect class="cls-19" x="17.01" y="149.17" width="202.1" height="14.53"/>
    <rect class="cls-19" x="17.01" y="169.72" width="202.1" height="14.53"/>
    <rect class="cls-50" x="2.48" y="218.27" width="191.34" height="31.18"/>
    <rect class="cls-46" x="4.24" y="5.24" width="33.73" height="18.43"/>
    <text class="cls-2" transform="translate(50.17 13.18) scale(1 1.11)"><tspan x="0" y="0">CO</tspan><tspan class="cls-45" x="15.01" y="0">P</tspan><tspan class="cls-22" x="21.6" y="0">Y TEXT OUT OF ANY </tspan></text>
    <text class="cls-2" transform="translate(50.17 25.18) scale(1 1.11)"><tspan x="0" y="0">PH</tspan><tspan class="cls-42" x="14.36" y="0">O</tspan><tspan class="cls-37" x="21.93" y="0">T</tspan><tspan class="cls-22" x="27.98" y="0">O OR SCREENSH</tspan><tspan class="cls-38" x="110.39" y="0">O</tspan><tspan x="117.95" y="0">T</tspan></text>
    <text class="cls-5" transform="translate(5.67 14.44) scale(1 1.11)"><tspan x="0" y="0">H</tspan><tspan class="cls-36" x="8.17" y="0">A</tspan><tspan x="15.54" y="0">CK</tspan></text>
    <text class="cls-6" transform="translate(6.18 20.91) scale(1 1.11)"><tspan x="0" y="0">OF THE </tspan><tspan class="cls-40" x="19.71" y="0">D</tspan><tspan class="cls-26" x="23.17" y="0">A</tspan><tspan class="cls-20" x="26.46" y="0">Y</tspan></text>
    <text class="cls-4" transform="translate(5.67 37.77) scale(1 1.11)"><tspan x="0" y="0">WH</tspan><tspan class="cls-25" x="12.1" y="0">A</tspan><tspan x="16.5" y="0">T IT SO</tspan><tspan class="cls-24" x="40.47" y="0">L</tspan><tspan x="43.72" y="0">VES: </tspan></text>
    <text class="cls-8" transform="translate(66.58 37.77) scale(1 1.11)"><tspan x="0" y="0">S</tspan><tspan class="cls-29" x="4.25" y="0">av</tspan><tspan x="11.97" y="0">es </tspan><tspan class="cls-29" x="21.47" y="0">y</tspan><tspan x="25.29" y="0">ou f</tspan><tspan class="cls-28" x="38.18" y="0">r</tspan><tspan x="41" y="0">om </tspan><tspan class="cls-29" x="53.52" y="0">r</tspan><tspan x="56.34" y="0">etyping phone numbers, </tspan></text>
    <text class="cls-8" transform="translate(206.91 37.77) scale(1 1.11)"><tspan x="0" y="0"> </tspan></text>
    <text class="cls-8" transform="translate(5.67 47.27) scale(1 1.11)"><tspan x="0" y="0">add</tspan><tspan class="cls-29" x="12.74" y="0">r</tspan><tspan x="15.56" y="0">esses, bill amounts, URLs, or notes captu</tspan><tspan class="cls-29" x="153.36" y="0">r</tspan><tspan class="cls-17" x="156.18" y="0">ed in images</tspan></text>
    <text class="cls-4" transform="translate(5.67 59.03) scale(1 1.11)"><tspan x="0" y="0">WH</tspan><tspan class="cls-25" x="12.1" y="0">A</tspan><tspan x="16.5" y="0">T </tspan><tspan class="cls-35" x="22.61" y="0">T</tspan><tspan x="26.65" y="0">O DO:</tspan></text>
    <text class="cls-11" transform="translate(51.68 59.03) scale(1 1.11)"><tspan x="0" y="0"> </tspan></text>
    <text class="cls-8" transform="translate(53.55 59.03) scale(1 1.11)"><tspan x="0" y="0">Use Google </tspan><tspan class="cls-35" x="39.82" y="0">L</tspan><tspan x="43.42" y="0">ens on a photo or sc</tspan><tspan class="cls-29" x="111.38" y="0">r</tspan><tspan class="cls-17" x="114.2" y="0">eenshot </tspan></text>
    <text class="cls-8" transform="translate(196.68 59.03) scale(1 1.11)"><tspan x="0" y="0"> </tspan></text>
    <text class="cls-8" transform="translate(5.67 68.53) scale(1 1.11)"><tspan x="0" y="0">whene</tspan><tspan class="cls-29" x="22.46" y="0">v</tspan><tspan class="cls-21" x="26.21" y="0">er text is t</tspan><tspan class="cls-29" x="60.56" y="0">r</tspan><tspan x="63.37" y="0">apped inside an image.</tspan></text>
    <text class="cls-3" transform="translate(19.84 96.17) scale(1 1.11)"><tspan x="0" y="0">Open</tspan></text>
    <text class="cls-8" transform="translate(37.69 96.17) scale(1 1.11)"><tspan x="0" y="0" xml:space="preserve"> image in Google Photos or use Google </tspan><tspan class="cls-39" x="131.76" y="0">L</tspan><tspan x="135.36" y="0">ens di</tspan><tspan class="cls-32" x="155.45" y="0">r</tspan><tspan x="158.26" y="0">ectl</tspan><tspan class="cls-34" x="170.86" y="0">y</tspan><tspan x="174.47" y="0">.</tspan></text>
    <text class="cls-3" transform="translate(19.84 117.71) scale(1 1.11)"><tspan class="cls-23" x="0" y="0">T</tspan><tspan x="3.53" y="0">ap</tspan></text>
    <text class="cls-8" transform="translate(31.79 117.71) scale(1 1.11)"><tspan x="0" y="0" xml:space="preserve"> the </tspan><tspan class="cls-35" x="14.76" y="0">L</tspan><tspan x="18.36" y="0">ens option.</tspan></text>
    <text class="cls-3" transform="translate(19.84 138.97) scale(1 1.11)"><tspan x="0" y="0">Select</tspan></text>
    <text class="cls-8" transform="translate(40.72 138.97) scale(1 1.11)"><tspan x="0" y="0" xml:space="preserve"> the text a</tspan><tspan class="cls-28" x="34.13" y="0">r</tspan><tspan class="cls-21" x="36.94" y="0">ea </tspan><tspan class="cls-29" x="46.95" y="0">y</tspan><tspan x="50.77" y="0">ou </tspan><tspan class="cls-43" x="61.07" y="0">w</tspan><tspan x="66.91" y="0">ant.</tspan></text>
    <text class="cls-3" transform="translate(19.84 158.24) scale(1 1.11)"><tspan x="0" y="0">Choose</tspan></text>
    <text class="cls-8" transform="translate(44.82 158.24) scale(1 1.11)"><tspan x="0" y="0" xml:space="preserve"> Sea</tspan><tspan class="cls-29" x="14.26" y="0">r</tspan><tspan x="17.07" y="0">ch, </tspan><tspan class="cls-23" x="28.95" y="0">T</tspan><tspan class="cls-29" x="32.48" y="0">r</tspan><tspan x="35.29" y="0">anslate, or another </tspan><tspan class="cls-29" x="101.32" y="0">a</tspan><tspan class="cls-44" x="105.28" y="0">v</tspan><tspan x="109.1" y="0">ailable action.</tspan></text>
    <text class="cls-3" transform="translate(19.84 179.78) scale(1 1.11)"><tspan class="cls-29" x="0" y="0">P</tspan><tspan x="4.33" y="0">aste</tspan></text>
    <text class="cls-8" transform="translate(38.63 179.78) scale(1 1.11)"><tspan x="0" y="0" xml:space="preserve"> or use the ext</tspan><tspan class="cls-33" x="48.17" y="0">r</tspan><tspan x="50.98" y="0">acted text whe</tspan><tspan class="cls-29" x="101.31" y="0">r</tspan><tspan class="cls-17" x="104.13" y="0">e </tspan><tspan class="cls-29" x="110.03" y="0">y</tspan><tspan x="113.85" y="0">ou need it.</tspan></text>
    <text class="cls-4" transform="translate(5.67 201.04) scale(1 1.11)"><tspan x="0" y="0">N</tspan><tspan class="cls-41" x="5.04" y="0">O</tspan><tspan x="10.09" y="0">TE:</tspan></text>
    <text class="cls-11" transform="translate(26.26 201.04) scale(1 1.11)"><tspan x="0" y="0"> </tspan></text>
    <text class="cls-8" transform="translate(28.12 201.04) scale(1 1.11)"><tspan x="0" y="0">This</tspan><tspan class="cls-48" x="14.11" y="0"> </tspan><tspan class="cls-33" x="15.97" y="0">w</tspan><tspan x="21.74" y="0">orks</tspan><tspan class="cls-48" x="36.42" y="0"> </tspan><tspan x="38.28" y="0">brilliantly</tspan><tspan class="cls-47" x="70.68" y="0"> </tspan><tspan x="72.55" y="0">for</tspan><tspan class="cls-47" x="82.27" y="0"> </tspan><tspan class="cls-16" x="84.13" y="0">posters,</tspan><tspan class="cls-48" x="111.49" y="0"> </tspan><tspan x="113.35" y="0">handwritten</tspan><tspan class="cls-48" x="154.89" y="0"> </tspan><tspan x="156.75" y="0">notes,</tspan><tspan class="cls-48" x="177.48" y="0"> </tspan><tspan class="cls-17" x="179.34" y="0">bills, </tspan></text>
    <text class="cls-8" transform="translate(5.67 210.53) scale(1 1.11)"><tspan x="0" y="0">ID numbers, and sc</tspan><tspan class="cls-29" x="64.58" y="0">r</tspan><tspan x="67.4" y="0">eenshots f</tspan><tspan class="cls-33" x="102.53" y="0">r</tspan><tspan x="105.35" y="0">om chats or </tspan><tspan class="cls-32" x="147.25" y="0">w</tspan><tspan x="153.02" y="0">ebsites.</tspan></text>
    <text class="cls-4" transform="translate(5.67 79.85) scale(1 1.11)"><tspan x="0" y="0">STEPS:</tspan></text>
    <text class="cls-9" transform="translate(6.38 231.25) scale(.98 1.09) skewX(-11.09)"><tspan x="0" y="0">Hacks a</tspan><tspan class="cls-31" x="20.23" y="0">r</tspan><tspan class="cls-18" x="22.38" y="0">e </tspan><tspan class="cls-31" x="26.87" y="0">b</tspan><tspan x="30.06" y="0">ased on </tspan><tspan class="cls-31" x="51.55" y="0">v</tspan><tspan x="54.41" y="0">erified public sou</tspan><tspan class="cls-27" x="98.93" y="0">r</tspan><tspan x="101.07" y="0">ces. </tspan><tspan class="cls-31" x="112.7" y="0">R</tspan><tspan class="cls-18" x="116.05" y="0">eaders a</tspan><tspan class="cls-31" x="138.14" y="0">r</tspan><tspan x="140.29" y="0">e advised to foll</tspan><tspan class="cls-31" x="181.14" y="0">o</tspan><tspan x="184.21" y="0">w </tspan></text>
    <text class="cls-9" transform="translate(6.38 238.26) scale(.98 1.09) skewX(-11.09)"><tspan x="0" y="0">official </tspan><tspan class="cls-31" x="19.19" y="0">w</tspan><tspan x="23.58" y="0">ebsites and updated rules</tspan></text>
    <text class="cls-10" transform="translate(6.8 248.12) scale(1 1.11)"><tspan x="0" y="0">Tip f</tspan><tspan class="cls-30" x="11.29" y="0">r</tspan><tspan x="13.4" y="0">om </tspan></text>
    <text class="cls-7" transform="translate(29.59 248.12) scale(1 1.11)"><tspan x="0" y="0">editorial desk</tspan></text>
    <text class="cls-10" transform="translate(64.21 248.12) scale(1 1.11)"><tspan x="0" y="0">@timesinternet.in</tspan></text>
  </g>
</svg>
